<?xml version="1.0" encoding="UTF-8" standalone="no"?>
<svg
   xmlns:dc="http://purl.org/dc/elements/1.1/"
   xmlns:cc="http://creativecommons.org/ns#"
   xmlns:rdf="http://www.w3.org/1999/02/22-rdf-syntax-ns#"
   xmlns:svg="http://www.w3.org/2000/svg"
   xmlns="http://www.w3.org/2000/svg"
   xmlns:sodipodi="http://sodipodi.sourceforge.net/DTD/sodipodi-0.dtd"
   xmlns:inkscape="http://www.inkscape.org/namespaces/inkscape"
   width="34.347088mm"
   height="34.347088mm"
   viewBox="0 0 34.347088 34.347088"
   version="1.1"
   id="svg2608"
   inkscape:version="1.0.1 (3bc2e813f5, 2020-09-07)"
   sodipodi:docname="win-border.svg">
  <defs
     id="defs2602" />
  <sodipodi:namedview
     id="base"
     pagecolor="#ffffff"
     bordercolor="#666666"
     borderopacity="1.0"
     inkscape:pageopacity="0.0"
     inkscape:pageshadow="2"
     inkscape:zoom="9.7676888"
     inkscape:cx="64.907883"
     inkscape:cy="-2.9098069"
     inkscape:document-units="mm"
     inkscape:current-layer="layer1"
     inkscape:document-rotation="0"
     showgrid="false"
     inkscape:pagecheckerboard="true"
     fit-margin-top="0"
     fit-margin-left="0"
     fit-margin-right="0"
     fit-margin-bottom="0"
     inkscape:window-width="1920"
     inkscape:window-height="1064"
     inkscape:window-x="0"
     inkscape:window-y="16"
     inkscape:window-maximized="1" />
  <metadata
     id="metadata2605">
    <rdf:RDF>
      <cc:Work
         rdf:about="">
        <dc:format>image/svg+xml</dc:format>
        <dc:type
           rdf:resource="http://purl.org/dc/dcmitype/StillImage" />
        <dc:title></dc:title>
      </cc:Work>
    </rdf:RDF>
  </metadata>
  <g
     inkscape:label="Layer 1"
     inkscape:groupmode="layer"
     id="layer1"
     transform="translate(-17.226072,-51.619004)">
    <g
       id="g3353"
       transform="matrix(8.1134859,0,0,8.1134859,-18.220637,-457.4928)">
      <path
         style="fill:#fefefe;stroke-width:0.0846667"
         d="m 4.3688631,64.865504 v -2.116667 h 2.1166665 2.1166666 v 2.116667 2.116666 H 6.4855296 4.3688631 Z m 3.8099998,0 V 63.17217 H 6.4855296 4.7921964 v 1.693334 1.693333 h 1.6933332 1.6933333 z"
         id="path3361" />
      <path
         style="fill:#dddddd;stroke-width:0.0846667"
         d="m 4.3688631,64.865504 v -2.116667 h 2.1166665 2.1166666 v 2.116667 2.116666 H 6.4855296 4.3688631 Z m 0.254,0 v -1.862667 h 1.8626665 1.8626666 v -0.08467 -0.08467 H 6.400863 4.4535298 v 1.947333 1.947333 h 0.084667 0.084667 z m 3.5559998,0 V 63.17217 H 6.4855296 4.7921964 v 1.693334 1.693333 h 1.6933332 1.6933333 z"
         id="path3359" />
      <path
         style="fill:#9b9b9b;stroke-width:0.0846667"
         d="m 4.3688631,64.865504 v -2.116667 h 2.1166665 2.1166666 v 2.116667 2.116666 H 6.4855296 4.3688631 Z m 0.254,1.947333 v -0.08467 h 1.8626665 1.8626666 v -1.862666 -1.862667 h 0.084667 0.084667 v -0.08467 -0.08467 H 6.4855296 4.4535298 v 2.032 2.031999 h 0.084667 0.084667 z"
         id="path3357" />
      <path
         style="fill:#000000;stroke-width:0.0846667"
         d="m 4.3688631,64.865504 v -2.116667 h 2.1166665 2.1166666 v 2.116667 2.116666 H 6.4855296 4.3688631 Z m 4.1486664,0 v -2.032 H 6.4855296 4.4535298 v 2.032 2.031999 h 2.0319998 2.0319999 z"
         id="path3355" />
    </g>
  </g>
</svg>
